<mxfile host="Electron" agent="Mozilla/5.0 (Windows NT 10.0; Win64; x64) AppleWebKit/537.36 (KHTML, like Gecko) draw.io/27.0.2 Chrome/134.0.6998.205 Electron/35.3.0 Safari/537.36" version="27.0.2">
  <diagram name="Page-1" id="gA3G4DaGv4zulem_oDaO">
    <mxGraphModel dx="517" dy="645" grid="1" gridSize="10" guides="1" tooltips="1" connect="1" arrows="1" fold="1" page="1" pageScale="1" pageWidth="827" pageHeight="1169" math="0" shadow="0">
      <root>
        <mxCell id="0" />
        <mxCell id="1" parent="0" />
        <mxCell id="Scl-Rc-_g2JWEkUubuvL-7" style="rounded=0;orthogonalLoop=1;jettySize=auto;html=1;exitX=0.5;exitY=0.5;exitDx=0;exitDy=0;exitPerimeter=0;entryX=0.012;entryY=0.72;entryDx=0;entryDy=0;entryPerimeter=0;" parent="1" source="Scl-Rc-_g2JWEkUubuvL-1" target="Scl-Rc-_g2JWEkUubuvL-4" edge="1">
          <mxGeometry relative="1" as="geometry" />
        </mxCell>
        <mxCell id="Scl-Rc-_g2JWEkUubuvL-8" value="επιλέγει&lt;div&gt;&#39;&#39;Add House&#39;&#39;&lt;/div&gt;" style="edgeLabel;html=1;align=center;verticalAlign=middle;resizable=0;points=[];" parent="Scl-Rc-_g2JWEkUubuvL-7" vertex="1" connectable="0">
          <mxGeometry x="-0.0743" y="2" relative="1" as="geometry">
            <mxPoint as="offset" />
          </mxGeometry>
        </mxCell>
        <mxCell id="UjbLKiBEOfqTgbBrBOKW-2" style="rounded=0;orthogonalLoop=1;jettySize=auto;html=1;exitX=0.5;exitY=0.5;exitDx=0;exitDy=0;exitPerimeter=0;" parent="1" source="Scl-Rc-_g2JWEkUubuvL-1" target="UjbLKiBEOfqTgbBrBOKW-1" edge="1">
          <mxGeometry relative="1" as="geometry" />
        </mxCell>
        <mxCell id="UjbLKiBEOfqTgbBrBOKW-6" value="επιλέγει Profile Page" style="edgeLabel;html=1;align=center;verticalAlign=middle;resizable=0;points=[];" parent="UjbLKiBEOfqTgbBrBOKW-2" vertex="1" connectable="0">
          <mxGeometry x="0.337" y="3" relative="1" as="geometry">
            <mxPoint as="offset" />
          </mxGeometry>
        </mxCell>
        <mxCell id="Scl-Rc-_g2JWEkUubuvL-1" value="User" style="shape=umlActor;verticalLabelPosition=bottom;verticalAlign=top;html=1;outlineConnect=0;" parent="1" vertex="1">
          <mxGeometry x="80" y="190" width="30" height="60" as="geometry" />
        </mxCell>
        <mxCell id="Scl-Rc-_g2JWEkUubuvL-9" value="" style="edgeStyle=orthogonalEdgeStyle;rounded=0;orthogonalLoop=1;jettySize=auto;html=1;" parent="1" source="Scl-Rc-_g2JWEkUubuvL-4" target="Scl-Rc-_g2JWEkUubuvL-5" edge="1">
          <mxGeometry relative="1" as="geometry" />
        </mxCell>
        <mxCell id="Scl-Rc-_g2JWEkUubuvL-4" value="ProfilePage" style="shape=umlBoundary;whiteSpace=wrap;html=1;" parent="1" vertex="1">
          <mxGeometry x="250" y="120" width="100" height="80" as="geometry" />
        </mxCell>
        <mxCell id="Scl-Rc-_g2JWEkUubuvL-5" value="φορτώνει" style="ellipse;shape=umlControl;whiteSpace=wrap;html=1;" parent="1" vertex="1">
          <mxGeometry x="414" y="120" width="70" height="80" as="geometry" />
        </mxCell>
        <mxCell id="Scl-Rc-_g2JWEkUubuvL-6" value="HouseListing" style="ellipse;shape=umlEntity;whiteSpace=wrap;html=1;" parent="1" vertex="1">
          <mxGeometry x="404" y="340" width="80" height="80" as="geometry" />
        </mxCell>
        <mxCell id="Scl-Rc-_g2JWEkUubuvL-17" value="" style="edgeStyle=none;rounded=0;orthogonalLoop=1;jettySize=auto;html=1;" parent="1" source="Scl-Rc-_g2JWEkUubuvL-10" target="Scl-Rc-_g2JWEkUubuvL-16" edge="1">
          <mxGeometry relative="1" as="geometry" />
        </mxCell>
        <mxCell id="Scl-Rc-_g2JWEkUubuvL-10" value="CreateListing&lt;div&gt;Page&lt;/div&gt;" style="shape=umlBoundary;whiteSpace=wrap;html=1;" parent="1" vertex="1">
          <mxGeometry x="260" y="240" width="100" height="80" as="geometry" />
        </mxCell>
        <mxCell id="Scl-Rc-_g2JWEkUubuvL-12" style="edgeStyle=none;rounded=0;orthogonalLoop=1;jettySize=auto;html=1;entryX=0.932;entryY=0.225;entryDx=0;entryDy=0;entryPerimeter=0;" parent="1" source="Scl-Rc-_g2JWEkUubuvL-5" target="Scl-Rc-_g2JWEkUubuvL-10" edge="1">
          <mxGeometry relative="1" as="geometry" />
        </mxCell>
        <mxCell id="Scl-Rc-_g2JWEkUubuvL-13" style="edgeStyle=none;rounded=0;orthogonalLoop=1;jettySize=auto;html=1;exitX=0.5;exitY=0.5;exitDx=0;exitDy=0;exitPerimeter=0;entryX=-0.012;entryY=0.505;entryDx=0;entryDy=0;entryPerimeter=0;" parent="1" source="Scl-Rc-_g2JWEkUubuvL-1" target="Scl-Rc-_g2JWEkUubuvL-10" edge="1">
          <mxGeometry relative="1" as="geometry" />
        </mxCell>
        <mxCell id="Scl-Rc-_g2JWEkUubuvL-15" value="εισάγει στοιχεία&lt;div&gt;&lt;span style=&quot;background-color: light-dark(#ffffff, var(--ge-dark-color, #121212)); color: light-dark(rgb(0, 0, 0), rgb(255, 255, 255));&quot;&gt;House και πατάει&lt;/span&gt;&lt;/div&gt;&lt;div&gt;&#39;&#39;CreateListing&#39;&#39;&lt;/div&gt;" style="edgeLabel;html=1;align=center;verticalAlign=middle;resizable=0;points=[];" parent="Scl-Rc-_g2JWEkUubuvL-13" vertex="1" connectable="0">
          <mxGeometry x="-0.0766" y="3" relative="1" as="geometry">
            <mxPoint x="11" y="16" as="offset" />
          </mxGeometry>
        </mxCell>
        <mxCell id="Scl-Rc-_g2JWEkUubuvL-20" value="" style="edgeStyle=none;rounded=0;orthogonalLoop=1;jettySize=auto;html=1;entryX=0.486;entryY=0.105;entryDx=0;entryDy=0;entryPerimeter=0;" parent="1" source="Scl-Rc-_g2JWEkUubuvL-16" target="Scl-Rc-_g2JWEkUubuvL-19" edge="1">
          <mxGeometry relative="1" as="geometry" />
        </mxCell>
        <mxCell id="eRY7YnzZWBRw1m4i1y4f-1" value="ΝΑΙ" style="edgeLabel;html=1;align=center;verticalAlign=middle;resizable=0;points=[];" parent="Scl-Rc-_g2JWEkUubuvL-20" vertex="1" connectable="0">
          <mxGeometry x="-0.1584" relative="1" as="geometry">
            <mxPoint as="offset" />
          </mxGeometry>
        </mxCell>
        <mxCell id="eRY7YnzZWBRw1m4i1y4f-4" style="rounded=0;orthogonalLoop=1;jettySize=auto;html=1;" parent="1" source="Scl-Rc-_g2JWEkUubuvL-16" target="eRY7YnzZWBRw1m4i1y4f-2" edge="1">
          <mxGeometry relative="1" as="geometry" />
        </mxCell>
        <mxCell id="eRY7YnzZWBRw1m4i1y4f-8" value="ΟΧΙ" style="edgeLabel;html=1;align=center;verticalAlign=middle;resizable=0;points=[];" parent="eRY7YnzZWBRw1m4i1y4f-4" vertex="1" connectable="0">
          <mxGeometry x="-0.7258" y="-1" relative="1" as="geometry">
            <mxPoint as="offset" />
          </mxGeometry>
        </mxCell>
        <mxCell id="Scl-Rc-_g2JWEkUubuvL-16" value="έλεγχος&lt;div&gt;πληρότητας&lt;/div&gt;&lt;div&gt;στοιχείων&lt;/div&gt;" style="ellipse;shape=umlControl;whiteSpace=wrap;html=1;" parent="1" vertex="1">
          <mxGeometry x="430" y="220" width="70" height="80" as="geometry" />
        </mxCell>
        <mxCell id="Scl-Rc-_g2JWEkUubuvL-25" style="edgeStyle=none;rounded=0;orthogonalLoop=1;jettySize=auto;html=1;" parent="1" source="Scl-Rc-_g2JWEkUubuvL-19" target="Scl-Rc-_g2JWEkUubuvL-6" edge="1">
          <mxGeometry relative="1" as="geometry" />
        </mxCell>
        <mxCell id="eRY7YnzZWBRw1m4i1y4f-11" style="rounded=0;orthogonalLoop=1;jettySize=auto;html=1;" parent="1" source="Scl-Rc-_g2JWEkUubuvL-19" target="eRY7YnzZWBRw1m4i1y4f-12" edge="1">
          <mxGeometry relative="1" as="geometry">
            <mxPoint x="561.4285714285713" y="500" as="targetPoint" />
          </mxGeometry>
        </mxCell>
        <mxCell id="HSUnpXJTitj-2lVBH1F4-2" value="" style="rounded=0;orthogonalLoop=1;jettySize=auto;html=1;" edge="1" parent="1" source="Scl-Rc-_g2JWEkUubuvL-19" target="HSUnpXJTitj-2lVBH1F4-1">
          <mxGeometry relative="1" as="geometry" />
        </mxCell>
        <mxCell id="Scl-Rc-_g2JWEkUubuvL-19" value="αποθηκεύει&lt;div&gt;ως&lt;/div&gt;&lt;div&gt;&#39;&#39;pending&#39;&#39;&lt;/div&gt;" style="ellipse;shape=umlControl;whiteSpace=wrap;html=1;" parent="1" vertex="1">
          <mxGeometry x="500" y="355" width="80" height="90" as="geometry" />
        </mxCell>
        <mxCell id="UjbLKiBEOfqTgbBrBOKW-4" value="" style="edgeStyle=orthogonalEdgeStyle;rounded=0;orthogonalLoop=1;jettySize=auto;html=1;" parent="1" source="UjbLKiBEOfqTgbBrBOKW-1" target="UjbLKiBEOfqTgbBrBOKW-3" edge="1">
          <mxGeometry relative="1" as="geometry" />
        </mxCell>
        <mxCell id="UjbLKiBEOfqTgbBrBOKW-1" value="NavigationBar" style="shape=umlBoundary;whiteSpace=wrap;html=1;" parent="1" vertex="1">
          <mxGeometry x="250" y="20" width="100" height="80" as="geometry" />
        </mxCell>
        <mxCell id="UjbLKiBEOfqTgbBrBOKW-5" style="rounded=0;orthogonalLoop=1;jettySize=auto;html=1;" parent="1" source="UjbLKiBEOfqTgbBrBOKW-3" target="Scl-Rc-_g2JWEkUubuvL-4" edge="1">
          <mxGeometry relative="1" as="geometry" />
        </mxCell>
        <mxCell id="UjbLKiBEOfqTgbBrBOKW-3" value="φορτώνει" style="ellipse;shape=umlControl;whiteSpace=wrap;html=1;" parent="1" vertex="1">
          <mxGeometry x="379" y="20" width="70" height="80" as="geometry" />
        </mxCell>
        <mxCell id="eRY7YnzZWBRw1m4i1y4f-7" style="rounded=0;orthogonalLoop=1;jettySize=auto;html=1;" parent="1" source="eRY7YnzZWBRw1m4i1y4f-2" target="Scl-Rc-_g2JWEkUubuvL-10" edge="1">
          <mxGeometry relative="1" as="geometry" />
        </mxCell>
        <mxCell id="eRY7YnzZWBRw1m4i1y4f-2" value="μήνυμα:&lt;div&gt;ελλιπή/ανεπαρκή στοιχεία&lt;/div&gt;" style="ellipse;shape=umlControl;whiteSpace=wrap;html=1;" parent="1" vertex="1">
          <mxGeometry x="275" y="350" width="70" height="80" as="geometry" />
        </mxCell>
        <mxCell id="eRY7YnzZWBRw1m4i1y4f-12" value="House" style="ellipse;shape=umlEntity;whiteSpace=wrap;html=1;" parent="1" vertex="1">
          <mxGeometry x="404" y="430" width="80" height="80" as="geometry" />
        </mxCell>
        <mxCell id="HSUnpXJTitj-2lVBH1F4-1" value="μήνυμα:House Listing καταχωρήθικε" style="ellipse;shape=umlControl;whiteSpace=wrap;html=1;" vertex="1" parent="1">
          <mxGeometry x="520" y="470" width="70" height="80" as="geometry" />
        </mxCell>
      </root>
    </mxGraphModel>
  </diagram>
</mxfile>
